<svg xmlns="http://www.w3.org/2000/svg" xmlns:xlink="http://www.w3.org/1999/xlink" width="100" zoomAndPan="magnify" viewBox="0 0 75 74.999997" height="100" preserveAspectRatio="xMidYMid meet" version="1.0"><defs><clipPath id="6a4b956619"><path d="M 1.308594 27 L 74.058594 27 L 74.058594 56 L 1.308594 56 Z M 1.308594 27 " clip-rule="nonzero"/></clipPath><clipPath id="691b2d769e"><path d="M 8 8.21875 L 67 8.21875 L 67 31 L 8 31 Z M 8 8.21875 " clip-rule="nonzero"/></clipPath><clipPath id="a20a0bc46b"><path d="M 55 52 L 70 52 L 70 66.71875 L 55 66.71875 Z M 55 52 " clip-rule="nonzero"/></clipPath><clipPath id="76dffea94c"><path d="M 5 52 L 20 52 L 20 66.71875 L 5 66.71875 Z M 5 52 " clip-rule="nonzero"/></clipPath></defs><g clip-path="url(#6a4b956619)"><path fill="#000000" d="M 66.121094 27.765625 L 9.226562 27.765625 C 4.855469 27.765625 1.3125 31.285156 1.3125 35.628906 L 1.3125 55.496094 L 74.035156 55.496094 L 74.035156 35.628906 C 74.035156 31.285156 70.492188 27.765625 66.121094 27.765625 Z M 20.859375 41.703125 C 20.859375 44.691406 18.421875 47.117188 15.414062 47.117188 L 15.128906 47.117188 C 12.121094 47.117188 9.683594 44.691406 9.683594 41.703125 L 9.683594 41.417969 C 9.683594 38.429688 12.121094 36.007812 15.128906 36.007812 L 15.414062 36.007812 C 18.421875 36.007812 20.859375 38.429688 20.859375 41.417969 Z M 65.71875 41.703125 C 65.71875 44.691406 63.28125 47.117188 60.273438 47.117188 L 59.988281 47.117188 C 56.980469 47.117188 54.542969 44.691406 54.542969 41.703125 L 54.542969 41.417969 C 54.542969 38.429688 56.980469 36.007812 59.988281 36.007812 L 60.273438 36.007812 C 63.28125 36.007812 65.71875 38.429688 65.71875 41.417969 Z M 65.71875 41.703125 " fill-opacity="1" fill-rule="nonzero"/></g><g clip-path="url(#691b2d769e)"><path fill="#000000" d="M 56.320312 11.464844 C 58.152344 11.464844 59.792969 13.066406 60.21875 15.265625 L 62.496094 27.054688 L 12.914062 27.054688 L 15.40625 15.179688 C 15.867188 12.992188 17.460938 11.464844 19.289062 11.464844 L 56.320312 11.464844 M 56.320312 8.207031 L 19.289062 8.207031 C 15.90625 8.207031 12.972656 10.816406 12.195312 14.511719 L 8.878906 30.316406 L 66.46875 30.316406 L 63.4375 14.652344 C 62.710938 10.890625 59.75 8.207031 56.320312 8.207031 Z M 56.320312 8.207031 " fill-opacity="1" fill-rule="nonzero"/></g><g clip-path="url(#a20a0bc46b)"><path fill="#000000" d="M 63.351562 66.625 L 62.542969 66.625 C 58.910156 66.625 55.960938 63.695312 55.960938 60.082031 L 55.960938 52.738281 L 69.933594 52.738281 L 69.933594 60.082031 C 69.933594 63.695312 66.984375 66.625 63.351562 66.625 Z M 63.351562 66.625 " fill-opacity="1" fill-rule="nonzero"/></g><g clip-path="url(#76dffea94c)"><path fill="#000000" d="M 12.804688 66.625 L 11.996094 66.625 C 8.363281 66.625 5.414062 63.695312 5.414062 60.082031 L 5.414062 52.738281 L 19.386719 52.738281 L 19.386719 60.082031 C 19.386719 63.695312 16.4375 66.625 12.804688 66.625 Z M 12.804688 66.625 " fill-opacity="1" fill-rule="nonzero"/></g></svg>