<svg xmlns="http://www.w3.org/2000/svg" xmlns:xlink="http://www.w3.org/1999/xlink" width="100" zoomAndPan="magnify" viewBox="0 0 75 74.999997" height="100" preserveAspectRatio="xMidYMid meet" version="1.0"><defs><clipPath id="7cda6b1876"><path d="M 30 2.175781 L 45 2.175781 L 45 17 L 30 17 Z M 30 2.175781 " clip-rule="nonzero"/></clipPath><clipPath id="2a290586b9"><path d="M 22.53125 18 L 52.53125 18 L 52.53125 72.675781 L 22.53125 72.675781 Z M 22.53125 18 " clip-rule="nonzero"/></clipPath></defs><g clip-path="url(#7cda6b1876)"><path fill="#000000" d="M 44.507812 9.195312 C 44.507812 8.734375 44.460938 8.277344 44.371094 7.828125 C 44.28125 7.375 44.148438 6.9375 43.972656 6.511719 C 43.796875 6.089844 43.582031 5.683594 43.324219 5.300781 C 43.070312 4.917969 42.777344 4.566406 42.453125 4.238281 C 42.128906 3.914062 41.773438 3.625 41.390625 3.367188 C 41.007812 3.113281 40.605469 2.898438 40.179688 2.722656 C 39.753906 2.546875 39.316406 2.414062 38.863281 2.324219 C 38.414062 2.234375 37.957031 2.1875 37.496094 2.1875 C 37.035156 2.1875 36.582031 2.234375 36.128906 2.324219 C 35.679688 2.414062 35.238281 2.546875 34.816406 2.722656 C 34.390625 2.898438 33.984375 3.117188 33.601562 3.371094 C 33.21875 3.628906 32.867188 3.917969 32.542969 4.242188 C 32.214844 4.570312 31.925781 4.921875 31.671875 5.304688 C 31.414062 5.6875 31.199219 6.09375 31.023438 6.515625 C 30.847656 6.941406 30.714844 7.378906 30.625 7.832031 C 30.535156 8.285156 30.488281 8.738281 30.488281 9.199219 C 30.488281 9.660156 30.535156 10.117188 30.625 10.566406 C 30.714844 11.019531 30.847656 11.457031 31.023438 11.882812 C 31.199219 12.304688 31.417969 12.710938 31.671875 13.09375 C 31.925781 13.476562 32.21875 13.828125 32.542969 14.15625 C 32.867188 14.480469 33.222656 14.769531 33.605469 15.027344 C 33.988281 15.28125 34.390625 15.496094 34.816406 15.671875 C 35.242188 15.847656 35.679688 15.984375 36.132812 16.070312 C 36.582031 16.160156 37.039062 16.207031 37.5 16.207031 C 37.960938 16.207031 38.414062 16.160156 38.867188 16.070312 C 39.320312 15.980469 39.757812 15.847656 40.183594 15.671875 C 40.609375 15.496094 41.011719 15.28125 41.394531 15.023438 C 41.777344 14.769531 42.128906 14.476562 42.457031 14.152344 C 42.78125 13.828125 43.070312 13.472656 43.328125 13.089844 C 43.582031 12.707031 43.800781 12.304688 43.976562 11.878906 C 44.152344 11.453125 44.285156 11.015625 44.375 10.5625 C 44.464844 10.109375 44.507812 9.65625 44.507812 9.195312 Z M 44.507812 9.195312 " fill-opacity="1" fill-rule="nonzero"/></g><g clip-path="url(#2a290586b9)"><path fill="#000000" d="M 45.140625 69.355469 L 45.140625 42.308594 C 45.140625 42.222656 45.125 42.136719 45.117188 42.054688 C 45.144531 41.84375 45.160156 41.632812 45.160156 41.417969 L 45.160156 27.332031 C 45.375 27.78125 45.542969 28.25 45.664062 28.730469 C 45.792969 29.25 45.917969 29.859375 46.039062 30.53125 C 46.15625 31.199219 46.269531 31.925781 46.371094 32.675781 C 46.597656 34.320312 46.773438 36.070312 46.910156 37.628906 C 46.960938 38.207031 47.007812 38.757812 47.046875 39.265625 C 47.121094 40.207031 47.175781 41.007812 47.210938 41.566406 C 47.226562 41.847656 47.242188 42.070312 47.25 42.21875 C 47.257812 42.367188 47.261719 42.441406 47.261719 42.441406 C 47.277344 42.769531 47.355469 43.085938 47.496094 43.382812 C 47.5 43.394531 47.503906 43.40625 47.507812 43.417969 C 47.640625 43.695312 47.820312 43.9375 48.039062 44.152344 C 48.054688 44.167969 48.066406 44.183594 48.082031 44.199219 C 48.304688 44.402344 48.550781 44.558594 48.824219 44.675781 C 48.851562 44.6875 48.875 44.703125 48.902344 44.714844 C 49.183594 44.820312 49.476562 44.878906 49.777344 44.882812 C 49.84375 44.886719 49.910156 44.898438 49.976562 44.894531 C 50.320312 44.875 50.648438 44.792969 50.957031 44.644531 C 51.265625 44.5 51.535156 44.296875 51.765625 44.042969 C 51.996094 43.785156 52.167969 43.496094 52.28125 43.175781 C 52.394531 42.851562 52.445312 42.519531 52.425781 42.175781 C 52.425781 42.152344 52.304688 39.765625 52.027344 36.753906 C 51.890625 35.246094 51.714844 33.585938 51.496094 31.976562 C 51.300781 30.460938 51.03125 28.964844 50.679688 27.476562 C 50.183594 25.472656 49.265625 23.839844 48.164062 22.621094 C 47.402344 21.777344 46.523438 21.074219 45.53125 20.519531 C 44.40625 19.890625 43.210938 19.457031 41.945312 19.21875 C 41.695312 19.171875 41.46875 19.136719 41.265625 19.109375 C 40.863281 19.011719 40.457031 18.960938 40.046875 18.960938 L 34.949219 18.960938 C 34.53125 18.960938 34.125 19.011719 33.71875 19.113281 C 32.550781 19.269531 31.425781 19.585938 30.347656 20.070312 C 29 20.675781 27.828125 21.523438 26.835938 22.621094 C 25.730469 23.835938 24.8125 25.472656 24.316406 27.476562 C 24.148438 28.148438 24 28.871094 23.867188 29.625 C 23.734375 30.378906 23.613281 31.167969 23.5 31.976562 C 23.214844 34.082031 23 36.289062 22.851562 38.113281 C 22.65625 40.453125 22.570312 42.15625 22.570312 42.175781 C 22.550781 42.519531 22.601562 42.851562 22.714844 43.175781 C 22.828125 43.5 23 43.789062 23.230469 44.042969 C 23.460938 44.296875 23.730469 44.5 24.042969 44.648438 C 24.351562 44.792969 24.675781 44.875 25.019531 44.894531 C 25.089844 44.898438 25.15625 44.886719 25.222656 44.882812 C 25.523438 44.878906 25.8125 44.820312 26.09375 44.714844 C 26.121094 44.703125 26.148438 44.6875 26.175781 44.675781 C 26.449219 44.558594 26.695312 44.402344 26.914062 44.199219 C 26.929688 44.183594 26.941406 44.167969 26.957031 44.152344 C 27.179688 43.9375 27.355469 43.695312 27.488281 43.417969 C 27.492188 43.40625 27.496094 43.394531 27.5 43.382812 C 27.640625 43.085938 27.71875 42.769531 27.734375 42.441406 C 27.734375 42.441406 27.742188 42.308594 27.757812 42.046875 C 27.8125 41.132812 27.964844 38.75 28.226562 36.113281 C 28.359375 34.792969 28.519531 33.410156 28.707031 32.121094 C 28.890625 30.832031 29.109375 29.636719 29.335938 28.730469 C 29.453125 28.253906 29.621094 27.792969 29.835938 27.351562 L 29.835938 41.417969 C 29.839844 41.632812 29.855469 41.84375 29.878906 42.054688 C 29.875 42.140625 29.855469 42.222656 29.855469 42.308594 L 29.855469 69.355469 C 29.855469 69.789062 29.9375 70.210938 30.105469 70.613281 C 30.273438 71.015625 30.511719 71.375 30.820312 71.683594 C 31.128906 71.992188 31.484375 72.230469 31.886719 72.394531 C 32.292969 72.5625 32.710938 72.648438 33.148438 72.648438 C 33.585938 72.648438 34.003906 72.5625 34.40625 72.394531 C 34.8125 72.230469 35.167969 71.992188 35.476562 71.683594 C 35.785156 71.375 36.023438 71.015625 36.191406 70.613281 C 36.355469 70.210938 36.441406 69.789062 36.441406 69.355469 L 36.441406 46.53125 L 38.554688 46.53125 L 38.554688 69.355469 C 38.554688 69.789062 38.636719 70.210938 38.804688 70.613281 C 38.972656 71.019531 39.210938 71.375 39.519531 71.683594 C 39.828125 71.992188 40.183594 72.230469 40.589844 72.398438 C 40.992188 72.5625 41.410156 72.648438 41.847656 72.648438 C 42.285156 72.648438 42.707031 72.5625 43.109375 72.398438 C 43.511719 72.230469 43.867188 71.992188 44.175781 71.683594 C 44.488281 71.375 44.722656 71.019531 44.890625 70.613281 C 45.058594 70.210938 45.140625 69.789062 45.140625 69.355469 Z M 45.140625 69.355469 " fill-opacity="1" fill-rule="nonzero"/></g></svg>